<svg id="Grupo_1106607" data-name="Grupo 1106607" xmlns="http://www.w3.org/2000/svg" xmlns:xlink="http://www.w3.org/1999/xlink" width="66.283" height="69.797" viewBox="0 0 66.283 69.797">
  <defs>
    <clipPath id="clip-path">
      <rect id="Rectángulo_403449" data-name="Rectángulo 403449" width="66.283" height="69.797" fill="none"/>
    </clipPath>
  </defs>
  <g id="Grupo_1106583" data-name="Grupo 1106583" transform="translate(0 0)" clip-path="url(#clip-path)">
    <path id="Trazado_902438" data-name="Trazado 902438" d="M66.138,70,49.995,68.486a29.653,29.653,0,1,1,5.794-7.14Z" transform="translate(-0.266 -6.662)" fill="#fffaf7"/>
    <path id="Trazado_902439" data-name="Trazado 902439" d="M29.975,76.192A29.988,29.988,0,1,1,56.052,60.985l10.083,8.427a.412.412,0,0,1-.3.727L49.868,68.646a30.037,30.037,0,0,1-19.894,7.546m.01-59.138A29.155,29.155,0,1,0,49.453,67.913a.413.413,0,0,1,.314-.1L64.59,69.2l-9.332-7.8a.412.412,0,0,1-.091-.524A29.152,29.152,0,0,0,29.984,17.054" transform="translate(0 -6.396)" fill="#322222"/>
    <path id="Trazado_902440" data-name="Trazado 902440" d="M52.911,47.834a10.431,10.431,0,0,0-16.7-4.269,9.89,9.89,0,0,1,1.409-.634,10.42,10.42,0,0,1,10.441,17.61,10.42,10.42,0,0,0,4.853-12.707" transform="translate(-14.268 -16.139)" fill="#ff964c"/>
    <path id="Trazado_902441" data-name="Trazado 902441" d="M44.726,75.006c-.214.288-1.722,1.063-1.953,1.36-14.38-4.335-19.967-10.449-22.637-15.327-.025-.05-.058-.1-.082-.14-.577-1.08-.939-1.9-1.129-2.365-.116-.256-.165-.4-.165-.4a16.41,16.41,0,0,1,7.054-19.687,16.415,16.415,0,0,0-5.1,18.335s.049.132.156.4a25.053,25.053,0,0,0,1.137,2.357c.025.049.05.1.075.14,2.678,4.887,8.265,10.993,22.645,15.327" transform="translate(-7.006 -15.153)" fill="#ff964c"/>
    <path id="Trazado_902442" data-name="Trazado 902442" d="M53.527,45.811V45.8a14.228,14.228,0,0,0-.634-2.357c-.049-.164-.082-.271-.1-.3A16.4,16.4,0,0,0,21.983,54.406s.049.132.156.4a25.054,25.054,0,0,0,1.137,2.357c.025.049.05.1.075.14C26.029,62.185,31.616,68.291,46,72.626c9.073-11.817,8.793-21.3,7.532-26.815M42.065,57.175a9.892,9.892,0,0,1-1.409.634,10.447,10.447,0,1,1,1.409-.634" transform="translate(-8.276 -12.773)" fill="#ff964c"/>
    <path id="Trazado_902443" data-name="Trazado 902443" d="M47.789,60.683a.412.412,0,0,1-.272-.721A10.009,10.009,0,0,0,37.488,43.048a9.572,9.572,0,0,0-1.349.607.412.412,0,0,1-.474-.668,10.838,10.838,0,0,1,17.364,4.437h0a10.881,10.881,0,0,1-5.047,13.21.408.408,0,0,1-.195.049M40.88,41.629a10.845,10.845,0,0,1,9.546,16,10.079,10.079,0,0,0,1.829-9.92A10.011,10.011,0,0,0,39.433,41.7l-.13.048a10.67,10.67,0,0,1,1.577-.116" transform="translate(-14 -15.869)" fill="#322222"/>
    <path id="Trazado_902444" data-name="Trazado 902444" d="M42.495,76.507a.376.376,0,0,1-.107-.016C30.8,73,23.314,67.92,19.51,60.968l-.047-.081a26.394,26.394,0,0,1-1.185-2.465c-.119-.263-.171-.415-.171-.415a16.829,16.829,0,0,1,7.232-20.178.412.412,0,0,1,.469.674,16.017,16.017,0,0,0-4.973,17.875s.048.128.151.381A24.417,24.417,0,0,0,22.1,59.072c.027.055.046.094.066.126,3.709,6.767,11.036,11.716,22.41,15.145a.412.412,0,0,1,.212.64,4.486,4.486,0,0,1-1.09.785,7.166,7.166,0,0,0-.871.585.457.457,0,0,1-.335.154M21.475,42.244a16.023,16.023,0,0,0-2.593,15.486c0,.012.05.139.153.366a25.844,25.844,0,0,0,1.116,2.34c.037.059.065.1.087.148C23.9,67.281,31.156,72.209,42.4,75.635c.194-.151.483-.331.866-.568l.285-.177C32.41,71.405,25.177,66.4,21.454,59.608c-.022-.036-.052-.1-.082-.155a25.3,25.3,0,0,1-1.148-2.381c-.111-.274-.162-.41-.162-.41a16.861,16.861,0,0,1,1.414-14.419" transform="translate(-6.741 -14.884)" fill="#322222"/>
    <path id="Trazado_902445" data-name="Trazado 902445" d="M45.731,72.77a.407.407,0,0,1-.119-.018c-11.591-3.494-19.077-8.571-22.887-15.524-.022-.036-.052-.1-.082-.155a25.153,25.153,0,0,1-1.148-2.381c-.111-.274-.162-.409-.162-.409A16.815,16.815,0,0,1,52.916,42.731s.047.13.108.33a14.555,14.555,0,0,1,.645,2.4h0c2.012,8.815-.549,17.948-7.61,27.145a.412.412,0,0,1-.327.161M22.106,54s.048.128.151.38a24.648,24.648,0,0,0,1.117,2.315c.027.054.046.093.066.126,3.679,6.712,10.919,11.637,22.137,15.062,6.777-8.92,9.227-17.749,7.284-26.246a.394.394,0,0,1-.01-.092v-.008a14.437,14.437,0,0,0-.61-2.217c-.044-.147-.069-.233-.085-.273A16.1,16.1,0,0,0,37.137,32.557,16,16,0,0,0,22.106,54" transform="translate(-8.012 -12.505)" fill="#322222"/>
    <path id="Trazado_902446" data-name="Trazado 902446" d="M40.545,61.941a10.847,10.847,0,1,1,5.143-1.308,10.239,10.239,0,0,1-1.464.66,10.784,10.784,0,0,1-3.679.648m0-20.847a10.011,10.011,0,1,0,3.392,19.425,9.448,9.448,0,0,0,1.349-.607l.005,0a10.051,10.051,0,0,0,4.66-12.2,10.031,10.031,0,0,0-9.406-6.611" transform="translate(-11.701 -15.869)" fill="#322222"/>
    <path id="Trazado_902447" data-name="Trazado 902447" d="M77.783,13.079a.412.412,0,0,1-.337-.648L86.036.175a.412.412,0,1,1,.674.473L78.12,12.9a.41.41,0,0,1-.337.175" transform="translate(-30.49 0)" fill="#322222"/>
    <path id="Trazado_902448" data-name="Trazado 902448" d="M84.872,22.91a.411.411,0,0,1-.277-.717l6.472-5.861a.412.412,0,0,1,.554.611L85.149,22.8a.41.41,0,0,1-.277.106" transform="translate(-33.284 -6.394)" fill="#322222"/>
    <path id="Trazado_902449" data-name="Trazado 902449" d="M91.961,33.36a.412.412,0,0,1-.164-.79l5.269-2.292a.412.412,0,1,1,.328.756l-5.269,2.292a.415.415,0,0,1-.164.034" transform="translate(-36.077 -11.919)" fill="#322222"/>
    <path id="Trazado_902450" data-name="Trazado 902450" d="M69.088,11.624a.411.411,0,0,1-.373-.585L72.59,2.7a.412.412,0,1,1,.746.347l-3.875,8.342a.41.41,0,0,1-.373.239" transform="translate(-27.064 -0.968)" fill="#322222"/>
    <path id="Trazado_902451" data-name="Trazado 902451" d="M60.244,10.893a.413.413,0,0,1-.412-.394L59.6,5.345A.411.411,0,0,1,60,4.915a.4.4,0,0,1,.431.393l.228,5.154a.411.411,0,0,1-.393.43h-.019" transform="translate(-23.488 -1.936)" fill="#322222"/>
  </g>
</svg>
