<svg xmlns="http://www.w3.org/2000/svg" xmlns:xlink="http://www.w3.org/1999/xlink" width="90.7" height="89.273" viewBox="0 0 90.7 89.273">
  <defs>
    <clipPath id="clip-path">
      <rect id="Rectángulo_403459" data-name="Rectángulo 403459" width="68.025" height="64.364" transform="translate(0 0)" fill="none"/>
    </clipPath>
  </defs>
  <g id="Grupo_1106600" data-name="Grupo 1106600" transform="matrix(0.875, -0.485, 0.485, 0.875, 0, 32.979)" clip-path="url(#clip-path)">
    <path id="Trazado_902764" data-name="Trazado 902764" d="M25.817,5.787,17.2,39.194a1.494,1.494,0,0,1-1.82,1.074l-.241-.062L0,36.3A19.447,19.447,0,0,0,18.5,21.715,19.448,19.448,0,0,0,9.362,0L24.743,3.967c.044.011.086.027.126.037a1.276,1.276,0,0,1,.122.049c0,.005.011.007.015.008a1.5,1.5,0,0,1,.811,1.727" transform="translate(41.776 21.983)" fill="#668243"/>
    <path id="Trazado_902765" data-name="Trazado 902765" d="M56.812,15.578l-.147-.034c-.04-.01-.082-.025-.125-.036L41.158,11.54A19.525,19.525,0,0,0,31.137,8.956L19.546,5.967a1.5,1.5,0,0,0-1.159.177l-3.1,1.92a1.491,1.491,0,0,1-1.159.178L0,4.6,1.283,1.716A2.9,2.9,0,0,1,4.645.091l1.3.334v0l8.135,2.1v0l2.783.718v0l5.016,1.294v0L42.06,9.741l.759,1.292L56.16,14.474a.9.9,0,0,1,.651,1.1" transform="translate(9.98 10.443)" fill="#322222"/>
    <path id="Trazado_902766" data-name="Trazado 902766" d="M40.345,10.386l15.14,3.9A2.384,2.384,0,0,1,52.585,16L1.789,2.9A2.387,2.387,0,0,1,.076,0L14.2,3.644,30.324,7.8a19.285,19.285,0,0,0,4.834,1.968,19.318,19.318,0,0,0,5.187.617" transform="translate(1.43 47.898)" fill="#322222"/>
    <path id="Trazado_902767" data-name="Trazado 902767" d="M29.143,2.588A19.525,19.525,0,1,1,24.3.619a19.449,19.449,0,0,1,4.838,1.969m5.371,20.745A15.556,15.556,0,1,0,15.564,34.508,15.557,15.557,0,0,0,34.514,23.333" transform="translate(21.996 19.396)" fill="#fffaf7"/>
    <path id="Trazado_902768" data-name="Trazado 902768" d="M19.443.5A15.556,15.556,0,1,1,.5,11.677,15.557,15.557,0,0,1,19.443.5m9.673,18.562A14,14,0,1,0,12.066,29.117,14,14,0,0,0,29.116,19.058" transform="translate(25.887 23.282)" fill="#fde9de"/>
    <path id="Trazado_902769" data-name="Trazado 902769" d="M17.5.447A14,14,0,1,1,.447,10.505,14,14,0,0,1,17.5.447M22.137,16.1a8.4,8.4,0,1,0-10.229,6.038A8.4,8.4,0,0,0,22.137,16.1" transform="translate(27.442 24.842)" fill="#ff964c"/>
    <path id="Trazado_902770" data-name="Trazado 902770" d="M10.5.268A8.4,8.4,0,1,1,.268,6.305,8.4,8.4,0,0,1,10.5.268" transform="translate(33.045 30.441)" fill="#fffaf7"/>
    <path id="Trazado_902771" data-name="Trazado 902771" d="M13.892.047l11.59,2.989a19.445,19.445,0,0,0-9.362,36.3L0,35.179,8.473,2.326v0a1.493,1.493,0,0,0,1.159-.177l3.1-1.92A1.5,1.5,0,0,1,13.892.047" transform="translate(15.635 16.363)" fill="#668243"/>
    <rect id="Rectángulo_403457" data-name="Rectángulo 403457" width="0.004" height="5.181" transform="translate(26.857 13.624) rotate(-74.042)" fill="#fde9de"/>
    <rect id="Rectángulo_403458" data-name="Rectángulo 403458" width="1.323" height="5.181" transform="translate(26.84 13.684) rotate(-75.53)" fill="#ff964c"/>
    <path id="Trazado_902772" data-name="Trazado 902772" d="M23.723,3.7,15.249,36.549,1.121,32.905a1.5,1.5,0,0,1-1.073-1.82L7.775,1.122A1.5,1.5,0,0,1,9.6.048L23.724,3.691Z" transform="translate(0.385 14.994)" fill="#668243"/>
    <path id="Trazado_902773" data-name="Trazado 902773" d="M8.136,2.1v0L0,0V0L8.132,2.1Z" transform="translate(15.92 10.869)" fill="#fde9de"/>
    <path id="Trazado_902774" data-name="Trazado 902774" d="M8.55,2.1,8.135,3.707h0L0,1.609.415,0Z" transform="translate(15.921 9.26)" fill="#ff964c"/>
    <path id="Trazado_902775" data-name="Trazado 902775" d="M16.142,41.084a1.871,1.871,0,0,1-.472-.06L.288,37.056a.384.384,0,0,1,.09-.756A19.1,19.1,0,0,0,18.509,22,19.1,19.1,0,0,0,9.556.718.384.384,0,0,1,9.842.012L25.224,3.979,25.309,4a1.982,1.982,0,0,1,.233.085l.023.013a1.88,1.88,0,0,1,1.009,2.165L17.957,39.674a1.881,1.881,0,0,1-1.816,1.41M2.725,36.892,15.861,40.28a1.111,1.111,0,0,0,1.352-.8L25.829,6.075a1.112,1.112,0,0,0-.6-1.283h0L25.2,4.779c-.023-.011-.05-.02-.076-.029V4.726a.408.408,0,0,1-.074-.082l-.02.08L11.9,1.335A19.89,19.89,0,0,1,19.253,22.2a19.888,19.888,0,0,1-16.529,14.7M26.2,6.171h0Zm-1.074-1.82-.068.266.068-.039Z" transform="translate(41.392 21.599)" fill="#322222"/>
    <path id="Trazado_902776" data-name="Trazado 902776" d="M57.2,16.346a.379.379,0,0,1-.086-.01l-.147-.034-.086-.025L41.446,12.3a.368.368,0,0,1-.1-.04,19.167,19.167,0,0,0-9.823-2.533.522.522,0,0,1-.1-.012L19.835,6.723a1.114,1.114,0,0,0-.861.132l-3.1,1.919A1.89,1.89,0,0,1,14.416,9L.288,5.354a.384.384,0,0,1-.255-.528L1.316,1.944A3.273,3.273,0,0,1,5.125.1l1.3.334a.393.393,0,0,1,.051.018L14.5,2.527a.269.269,0,0,1,.053.009l2.784.718a.3.3,0,0,1,.053.018L22.3,4.538a.366.366,0,0,1,.054.01l20.184,5.2a.384.384,0,0,1,.236.178l.677,1.154,13.187,3.4a1.289,1.289,0,0,1,.928,1.572.384.384,0,0,1-.372.288m-15.507-4.78,15.07,3.885a.52.52,0,0,0-.31-.222L43.108,11.789a.384.384,0,0,1-.236-.177l-.677-1.154L22.217,5.306a.467.467,0,0,1-.054-.01L17.147,4a.361.361,0,0,1-.053-.018l-2.678-.691a.33.33,0,0,1-.053-.009l-8.135-2.1a.365.365,0,0,1-.051-.017L4.933.848A2.5,2.5,0,0,0,2.018,2.257L.92,4.723,14.609,8.254a1.1,1.1,0,0,0,.861-.132l3.1-1.92a1.894,1.894,0,0,1,1.458-.223L31.567,8.955a19.909,19.909,0,0,1,10.122,2.611" transform="translate(9.596 10.059)" fill="#322222"/>
    <path id="Trazado_902777" data-name="Trazado 902777" d="M53.568,16.85a2.769,2.769,0,0,1-.694-.089l-50.8-13.1A2.773,2.773,0,0,1,.088.288.384.384,0,0,1,.265.054.375.375,0,0,1,.556.013L30.8,7.814a.368.368,0,0,1,.1.04,18.963,18.963,0,0,0,4.738,1.928,18.735,18.735,0,0,0,5.084.6.385.385,0,0,1,.1.012l15.14,3.9a.385.385,0,0,1,.276.468,2.773,2.773,0,0,1-2.674,2.079M.772.862a2,2,0,0,0,1.5,2.055l50.8,13.1a2,2,0,0,0,2.3-1.075L40.684,11.155a19.839,19.839,0,0,1-5.237-.63,19.683,19.683,0,0,1-4.885-1.981Z" transform="translate(1.046 47.514)" fill="#322222"/>
    <path id="Trazado_902778" data-name="Trazado 902778" d="M19.812,39.66a19.826,19.826,0,1,1,.353,0c-.117,0-.236,0-.353,0M19.847.769c-.114,0-.227,0-.341,0a19.058,19.058,0,0,0-4.439,37.512,18.753,18.753,0,0,0,5.084.6A19.062,19.062,0,0,0,29.329,3.305h0A19.16,19.16,0,0,0,19.847.769" transform="translate(21.618 19.011)" fill="#322222"/>
    <path id="Trazado_902779" data-name="Trazado 902779" d="M15.944,31.883A15.941,15.941,0,1,1,31.383,19.924,15.928,15.928,0,0,1,15.944,31.883M15.949.767a15.179,15.179,0,1,0,3.785.482A15.2,15.2,0,0,0,15.949.767M31.01,19.828h0Z" transform="translate(25.499 22.9)" fill="#322222"/>
    <path id="Trazado_902780" data-name="Trazado 902780" d="M15.944,31.883A15.941,15.941,0,1,1,31.382,19.924,15.936,15.936,0,0,1,15.944,31.883M15.95.768a15.18,15.18,0,1,0,3.785.482A15.2,15.2,0,0,0,15.95.768" transform="translate(25.499 22.9)" fill="#322222"/>
    <path id="Trazado_902781" data-name="Trazado 902781" d="M14.39,28.77A14.385,14.385,0,1,1,28.32,17.978,14.374,14.374,0,0,1,14.39,28.77m0-28a13.635,13.635,0,1,0,3.4.434,13.639,13.639,0,0,0-3.4-.434" transform="translate(27.055 24.458)" fill="#322222"/>
    <path id="Trazado_902782" data-name="Trazado 902782" d="M14.39,28.77A14.385,14.385,0,1,1,28.32,17.978,14.374,14.374,0,0,1,14.39,28.77m0-28a13.635,13.635,0,1,0,3.4.434,13.639,13.639,0,0,0-3.4-.434" transform="translate(27.055 24.458)" fill="#322222"/>
    <path id="Trazado_902783" data-name="Trazado 902783" d="M8.8,17.578A8.817,8.817,0,0,1,6.6,17.3,8.787,8.787,0,0,1,.282,6.595a8.784,8.784,0,1,1,17.011,4.388,8.8,8.8,0,0,1-8.491,6.6M8.776.768A8.02,8.02,0,0,0,1.884,12.862,8.016,8.016,0,1,0,10.791,1.025,8.056,8.056,0,0,0,8.776.768" transform="translate(32.659 30.055)" fill="#322222"/>
    <path id="Trazado_902784" data-name="Trazado 902784" d="M8.8,17.578A8.817,8.817,0,0,1,6.6,17.3,8.787,8.787,0,0,1,.282,6.595a8.784,8.784,0,1,1,17.011,4.388,8.8,8.8,0,0,1-8.491,6.6M8.776.768A8.02,8.02,0,0,0,1.884,12.862,8.016,8.016,0,1,0,10.791,1.025,8.056,8.056,0,0,0,8.776.768" transform="translate(32.659 30.055)" fill="#322222"/>
    <path id="Trazado_902785" data-name="Trazado 902785" d="M16.505,40.1a.41.41,0,0,1-.1-.012L.288,35.935a.385.385,0,0,1-.276-.468L8.486,2.613a.389.389,0,0,1,.469-.28A1.1,1.1,0,0,0,9.816,2.2l3.1-1.92A1.9,1.9,0,0,1,14.373.058l11.59,2.989a.384.384,0,0,1-.09.756A19.061,19.061,0,0,0,16.7,39.387a.384.384,0,0,1-.191.717M.853,35.287l13.5,3.482a19.831,19.831,0,0,1,9.17-35.557L14.181.8a1.112,1.112,0,0,0-.861.132l-3.1,1.919a1.956,1.956,0,0,1-1.076.281Z" transform="translate(15.25 15.979)" fill="#322222"/>
    <path id="Trazado_902786" data-name="Trazado 902786" d="M5.4,2.066a.4.4,0,0,1-.1-.012L.288.76A.386.386,0,0,1,.482.012L5.5,1.306a.383.383,0,0,1,.26.515v0a.385.385,0,0,1-.356.242" transform="translate(26.454 13.301)" fill="#322222"/>
    <path id="Trazado_902787" data-name="Trazado 902787" d="M5.4,3.343a.37.37,0,0,1-.1-.012L.288,2.038A.385.385,0,0,1,.012,1.57L.342.289A.387.387,0,0,1,.519.054.376.376,0,0,1,.811.013L5.827,1.307a.384.384,0,0,1,.276.468l-.33,1.281a.385.385,0,0,1-.372.288M.853,1.39l4.272,1.1.138-.537L.99.853Z" transform="translate(26.456 12.02)" fill="#322222"/>
    <path id="Trazado_902788" data-name="Trazado 902788" d="M15.634,37.318a.4.4,0,0,1-.1-.012L1.41,33.662A1.88,1.88,0,0,1,.06,31.374L7.788,1.41A1.88,1.88,0,0,1,10.076.06L24.2,3.7a.384.384,0,0,1,.281.447l-.005.025L16.006,37.03a.384.384,0,0,1-.372.288M9.607.769A1.114,1.114,0,0,0,8.532,1.6L.8,31.566a1.111,1.111,0,0,0,.8,1.352l13.756,3.548L23.641,4.352,9.884.8A1.118,1.118,0,0,0,9.607.769m14.5,3.311h0Z" transform="translate(0 14.609)" fill="#322222"/>
    <path id="Trazado_902789" data-name="Trazado 902789" d="M8.519,2.869a.4.4,0,0,1-.1-.012L.288.759A.384.384,0,0,1,.008.312a.387.387,0,0,1,.473-.3l8.131,2.1a.388.388,0,0,1,.284.448v0a.385.385,0,0,1-.377.309" transform="translate(15.537 10.486)" fill="#322222"/>
    <path id="Trazado_902790" data-name="Trazado 902790" d="M8.52,4.476a.376.376,0,0,1-.075-.007L.288,2.366A.385.385,0,0,1,.012,1.9L.427.289A.387.387,0,0,1,.6.054.378.378,0,0,1,.9.013l8.135,2.1a.385.385,0,0,1,.276.468L8.892,4.188a.385.385,0,0,1-.372.288M.853,1.718,8.243,3.625l.223-.865L1.075.853Z" transform="translate(15.537 8.875)" fill="#322222"/>
    <path id="Trazado_902791" data-name="Trazado 902791" d="M6.3.161A5.037,5.037,0,1,1,.161,3.78,5.037,5.037,0,0,1,6.3.161" transform="translate(36.409 33.803)" fill="#322222"/>
    <path id="Trazado_902792" data-name="Trazado 902792" d="M.384,29.751a.37.37,0,0,1-.1-.013.383.383,0,0,1-.273-.469L7.708.287A.381.381,0,0,1,8.177.014.385.385,0,0,1,8.45.483L.755,29.465a.384.384,0,0,1-.371.286" transform="translate(13.161 19.43)" fill="#322222"/>
    <path id="Trazado_902793" data-name="Trazado 902793" d="M.385,7.661A.392.392,0,0,1,.3,7.651.385.385,0,0,1,.01,7.189L1.622.3A.384.384,0,0,1,2.37.472L.759,7.364a.385.385,0,0,1-.375.3" transform="translate(20.862 0)" fill="#322222"/>
    <path id="Trazado_902794" data-name="Trazado 902794" d="M1.5,5.613a.384.384,0,0,1-.375-.3L.01.472A.384.384,0,0,1,.3.011.378.378,0,0,1,.758.3L1.871,5.143a.383.383,0,0,1-.375.471" transform="translate(17.148 1.803)" fill="#322222"/>
    <path id="Trazado_902795" data-name="Trazado 902795" d="M2.06,3.189a.381.381,0,0,1-.316-.166L.068.6A.384.384,0,0,1,.7.164L2.376,2.587a.383.383,0,0,1-.1.534.376.376,0,0,1-.218.068" transform="translate(13.987 4.223)" fill="#322222"/>
    <path id="Trazado_902796" data-name="Trazado 902796" d="M.384,4.247A.384.384,0,0,1,.1,3.605L3.263.126a.384.384,0,1,1,.569.516L.668,4.121a.38.38,0,0,1-.284.126" transform="translate(23.234 4.287)" fill="#322222"/>
    <path id="Trazado_902797" data-name="Trazado 902797" d="M.385,1.762a.384.384,0,0,1-.14-.742L2.79.027a.384.384,0,1,1,.279.716L.523,1.736a.39.39,0,0,1-.139.026" transform="translate(24.474 8.138)" fill="#322222"/>
  </g>
</svg>
