<svg xmlns="http://www.w3.org/2000/svg" xmlns:xlink="http://www.w3.org/1999/xlink" width="112" height="112" viewBox="0 0 112 112">
  <defs>
    <clipPath id="clip-path">
      <rect id="Rectángulo_403442" data-name="Rectángulo 403442" width="52.705" height="54.075" fill="none"/>
    </clipPath>
  </defs>
  <g id="img-24" transform="translate(1731.571 -3946)">
    <g id="Grupo_1106791" data-name="Grupo 1106791">
      <g id="Grupo_1106770" data-name="Grupo 1106770" transform="translate(-1741.957 3935.707)">
        <g id="Elipse_157" data-name="Elipse 157" transform="translate(15.385 15.293)" fill="#fff" stroke="#12263f" stroke-linejoin="round" stroke-width="5">
          <circle cx="51" cy="51" r="51" stroke="none"/>
          <circle cx="51" cy="51" r="53.5" fill="none"/>
        </g>
      </g>
      <g id="Grupo_1106771" data-name="Grupo 1106771" transform="translate(-1701.495 3974.962)">
        <g id="Grupo_1106558" data-name="Grupo 1106558" clip-path="url(#clip-path)">
          <path id="Trazado_902212" data-name="Trazado 902212" d="M38.42,262.861c-.128.141-.188.218-.259.284a16.526,16.526,0,0,1-14.934,4.433c-6.844-1.328-11.3-5.5-13.421-12.148-.218-.686-.387-.793-1.079-.616Q4.738,255.835.75,256.862c-.769.2-.864.365-.651,1.132A27.159,27.159,0,0,0,27.7,277.88a26.706,26.706,0,0,0,18.587-8.686,2.062,2.062,0,0,0,.267-.511c1.792,1.282,3.377,2.431,4.984,3.548.21.146.629.264.78.156a1.026,1.026,0,0,0,.3-.8c-.389-5.543-.8-11.085-1.212-16.627-.062-.841-.284-1.02-1.082-.813q-8.058,2.092-16.109,4.2c-.279.074-.667.334-.7.556s.245.587.481.762c1.444,1.071,2.914,2.106,4.422,3.186" transform="translate(0 -223.845)" fill="#fff"/>
          <path id="Trazado_902213" data-name="Trazado 902213" d="M27.834,0C28.913.116,30,.194,31.068.353a26.777,26.777,0,0,1,16.5,8.918,26.418,26.418,0,0,1,5.819,10.75c.2.725.093.914-.633,1.1q-3.989,1.024-7.978,2.043c-.745.19-.893.1-1.121-.624-2.025-6.389-6.27-10.512-12.8-12.006A16.6,16.6,0,0,0,15.5,14.65a6.2,6.2,0,0,1-.573.391c.658.473,1.164.838,1.671,1.2.949.679,1.913,1.338,2.838,2.049.247.19.555.579.506.8s-.472.486-.774.567c-4.582,1.214-9.171,2.4-13.759,3.595-.8.209-1.6.422-2.411.617-.62.15-.877-.054-.924-.7Q1.466,14.832.875,6.487c-.02-.292.079-.746.275-.857s.637.033.878.2C3.525,6.862,5,7.934,6.477,8.991c.094.067.2.123.267.167,1.083-1,2.1-2.028,3.206-2.939A26.642,26.642,0,0,1,24.233.233C25,.149,25.763.077,26.528,0ZM3.214,22.613l14.861-3.865-3.933-2.817c-.755-.542-.79-.8-.143-1.441A17.707,17.707,0,0,1,29.775,9.152c7.058,1.067,11.874,5.1,14.569,11.691.148.362.27.734.413,1.124l7.422-1.914A25.144,25.144,0,0,0,45.766,9.089C39.077,2.482,31.043.1,21.844,1.863a24.969,24.969,0,0,0-14.1,8.08c-.772.856-.779.85-1.741.16Q4.336,8.911,2.672,7.717c-.168-.12-.345-.227-.585-.385L3.214,22.613" transform="translate(-0.769)" fill="#1a1818"/>
          <path id="Trazado_902214" data-name="Trazado 902214" d="M38.42,262.86c-1.508-1.08-2.979-2.116-4.422-3.187-.236-.175-.517-.535-.481-.762s.424-.483.7-.556q8.049-2.125,16.109-4.2c.8-.207,1.02-.028,1.082.813.407,5.542.823,11.084,1.212,16.627a1.026,1.026,0,0,1-.3.8c-.151.108-.57-.01-.78-.156-1.607-1.117-3.192-2.266-4.984-3.548a2.063,2.063,0,0,1-.267.511A26.707,26.707,0,0,1,27.7,277.88,27.159,27.159,0,0,1,.1,257.993c-.213-.766-.117-.934.651-1.132q3.988-1.025,7.977-2.048c.691-.177.861-.07,1.079.616,2.117,6.652,6.577,10.82,13.421,12.147a16.527,16.527,0,0,0,14.934-4.433c.071-.065.131-.143.259-.284m-37.1-4.929c.045.18.069.294.1.406a26.087,26.087,0,0,0,38.73,14.407,25.269,25.269,0,0,0,5.8-4.948.764.764,0,0,1,1.217-.14c.324.259.67.49,1.008.731l3.212,2.294c-.38-5.153-.751-10.184-1.128-15.3l-14.832,3.85c.23.176.366.285.507.387,1.156.832,2.315,1.659,3.469,2.493.658.476.691.764.133,1.323-4.506,4.509-9.956,6.432-16.22,5.351-7.112-1.228-11.893-5.449-14.4-12.227l-.2-.531-7.41,1.9" transform="translate(0 -223.844)" fill="#1a1818"/>
          <path id="Trazado_902215" data-name="Trazado 902215" d="M12.211,32.249,11.084,16.968c.241.158.417.265.585.385Q13.334,18.544,15,19.739c.962.689.969.7,1.741-.16a24.969,24.969,0,0,1,14.1-8.08c9.2-1.762,17.233.619,23.922,7.227a25.144,25.144,0,0,1,6.414,10.964L53.754,31.6c-.143-.39-.265-.762-.413-1.124-2.7-6.589-7.511-10.624-14.569-11.691A17.707,17.707,0,0,0,23,24.126c-.646.64-.612.9.143,1.441l3.933,2.817Z" transform="translate(-9.765 -9.636)" fill="#5c783b"/>
          <path id="Trazado_902216" data-name="Trazado 902216" d="M11.059,267.63l7.41-1.9.2.531c2.5,6.778,7.284,11,14.4,12.227,6.264,1.082,11.713-.841,16.22-5.351.559-.559.525-.847-.133-1.323-1.154-.834-2.313-1.662-3.469-2.493-.141-.1-.276-.211-.507-.387L60,265.081c.377,5.114.748,10.145,1.128,15.3l-3.212-2.294c-.338-.242-.684-.473-1.008-.731a.764.764,0,0,0-1.217.14,25.269,25.269,0,0,1-5.8,4.948,26.087,26.087,0,0,1-38.73-14.407c-.034-.111-.058-.226-.1-.405" transform="translate(-9.743 -233.543)" fill="#ffce79"/>
        </g>
      </g>
    </g>
  </g>
</svg>
