<svg xmlns="http://www.w3.org/2000/svg" xmlns:xlink="http://www.w3.org/1999/xlink" width="57.531" height="55.144" viewBox="0 0 57.531 55.144">
  <defs>
    <clipPath id="clip-path">
      <rect id="Rectángulo_378087" data-name="Rectángulo 378087" width="55.138" height="55.144" fill="none"/>
    </clipPath>
    <filter id="Trazado_766322" x="21.069" y="3.041" width="36.462" height="42.97" filterUnits="userSpaceOnUse">
      <feOffset dx="3" dy="3" input="SourceAlpha"/>
      <feGaussianBlur stdDeviation="3" result="blur"/>
      <feFlood flood-opacity="0.31"/>
      <feComposite operator="in" in2="blur"/>
      <feComposite in="SourceGraphic"/>
    </filter>
  </defs>
  <g id="img-3" transform="translate(8792.258 390.243)">
    <g id="Grupo_1106640" data-name="Grupo 1106640" transform="translate(-9497.258 -1146.678)">
      <g id="Grupo_1073221" data-name="Grupo 1073221" transform="translate(705 756.435)">
        <g id="Grupo_1073220" data-name="Grupo 1073220" transform="translate(0 0)" clip-path="url(#clip-path)">
          <path id="Trazado_766285" data-name="Trazado 766285" d="M54.7,28.668A26.918,26.918,0,1,1,28.715.848h.007A26.938,26.938,0,0,1,54.7,28.67" transform="translate(-0.147 -0.139)" fill="#73964a"/>
          <path id="Trazado_766286" data-name="Trazado 766286" d="M38.235,51.464a25.226,25.226,0,0,1-4.561,1.49,2.593,2.593,0,0,1-.273.063,24.835,24.835,0,0,1-6.207.553,1.816,1.816,0,0,1-.26-.024,25.1,25.1,0,0,1-6.031-.987l-.02-.007a1.218,1.218,0,0,1-.322-.1l-.033-.017A25.62,25.62,0,0,1,7.473,43.138q-.289-.378-.55-.778A25.253,25.253,0,0,1,2.518,27.539c0-.128,0-.272.007-.423,0-.122.007-.255.017-.376A25.26,25.26,0,0,1,8.168,11.992c.049-.066.117-.147.192-.228l.078-.091A25.658,25.658,0,0,1,22.315,3.116a2.333,2.333,0,0,1,.393-.08,24.744,24.744,0,0,1,6.086-.56,1.309,1.309,0,0,1,.181,0,1.942,1.942,0,0,1,.23.018,24.924,24.924,0,0,1,5.989.976,25.738,25.738,0,0,1,13.789,9.867,25.333,25.333,0,0,1,4.634,15.588v.025a25.342,25.342,0,0,1-5.878,15.378,25.651,25.651,0,0,1-9.5,7.136m-17.168-.013a.539.539,0,0,1,.15.026,24.015,24.015,0,0,0,5.809.946.544.544,0,0,1,.147.018,24.131,24.131,0,0,0,6.025-.533l.265.52-.147-.548.117-.029a24.481,24.481,0,0,0,13.443-8.245,24.215,24.215,0,0,0,5.619-14.688l.565-.007-.565-.02a24.205,24.205,0,0,0-4.429-14.9A24.59,24.59,0,0,0,34.886,4.56a24.073,24.073,0,0,0-5.78-.936l-.144-.578-.021.566c-.021,0-.153,0-.176,0a23.974,23.974,0,0,0-5.875.543,1.711,1.711,0,0,0-.223.046A24.649,24.649,0,0,0,9.3,12.405l-.09.1c-.054.062-.107.121-.152.182a24.173,24.173,0,0,0-5.38,14.13c-.011.129-.015.231-.017.334-.006.136-.01.256-.007.383A24.147,24.147,0,0,0,7.868,41.731c.167.254.333.49.514.729a24.509,24.509,0,0,0,12.507,8.9.587.587,0,0,1,.174.087l.012,0" transform="translate(-0.42 -0.412)" fill="#322222"/>
          <path id="Trazado_766287" data-name="Trazado 766287" d="M57.9,30.39a.58.58,0,0,1-.246.047l-5.006-.183a.565.565,0,0,1-.545-.559,33.589,33.589,0,0,0-1.151-8.28.564.564,0,0,1,.32-.666c1.007-.438,2-.933,3.05-1.515a.59.59,0,0,1,.759.2,21.9,21.9,0,0,1,3.161,10.407.567.567,0,0,1-.341.545M53.226,29.14l3.85.141a20.789,20.789,0,0,0-2.685-8.789c-.754.405-1.487.769-2.22,1.1a34.707,34.707,0,0,1,1.057,7.55" transform="translate(-8.525 -3.209)" fill="#322222"/>
          <path id="Trazado_766288" data-name="Trazado 766288" d="M53.852,46.411a.567.567,0,0,1-.539-.047,32.9,32.9,0,0,0-2.932-1.73.567.567,0,0,1-.273-.689,33.439,33.439,0,0,0,1.732-8.124.566.566,0,0,1,.584-.516l5,.178a.567.567,0,0,1,.545.588.378.378,0,0,1,0,.043,22.033,22.033,0,0,1-3.872,10.1.566.566,0,0,1-.236.194m-2.519-2.553c.734.4,1.452.821,2.139,1.257a20.917,20.917,0,0,0,3.283-8.523l-3.841-.137a34.641,34.641,0,0,1-1.579,7.406" transform="translate(-8.382 -5.909)" fill="#322222"/>
          <path id="Trazado_766289" data-name="Trazado 766289" d="M49.961,17.092a.566.566,0,0,1-.745-.295.239.239,0,0,1-.011-.026,34.379,34.379,0,0,0-2.369-5.011.566.566,0,0,1,.805-.754,22.566,22.566,0,0,1,4.652,4.126.564.564,0,0,1-.062.8.486.486,0,0,1-.1.067c-.8.439-1.488.784-2.166,1.092Zm-.947-3.637q.561,1.16,1.032,2.347c.3-.142.6-.295.922-.465a21.5,21.5,0,0,0-1.954-1.883" transform="translate(-7.827 -1.826)" fill="#322222"/>
          <path id="Trazado_766290" data-name="Trazado 766290" d="M45.994,55.108a.565.565,0,0,1-.7-.835,34.991,34.991,0,0,0,2.714-4.823.565.565,0,0,1,.751-.276l.025.012c.655.343,1.318.733,2.092,1.223a.567.567,0,0,1,.172.783.576.576,0,0,1-.072.09,22.022,22.022,0,0,1-4.936,3.8.43.43,0,0,1-.053.023m2.789-4.639q-.56,1.159-1.2,2.271a21.257,21.257,0,0,0,2.086-1.751c-.31-.189-.6-.361-.888-.522" transform="translate(-7.566 -8.222)" fill="#322222"/>
          <path id="Trazado_766291" data-name="Trazado 766291" d="M46.7,30.65a.567.567,0,0,1-.246.046l-11.221-.4a.566.566,0,0,1-.545-.584h0l.17-4.977a.568.568,0,0,1,.556-.548,33.693,33.693,0,0,0,9.932-1.649.566.566,0,0,1,.714.364l.01.034a31.279,31.279,0,0,1,.971,7.185.566.566,0,0,1-.341.53M35.836,29.194l10.051.353a30.192,30.192,0,0,0-.775-5.747,34.808,34.808,0,0,1-9.143,1.516Z" transform="translate(-5.805 -3.768)" fill="#322222"/>
          <path id="Trazado_766292" data-name="Trazado 766292" d="M45.05,43.065a.565.565,0,0,1-.439,0,33.436,33.436,0,0,0-9.76-2.349.565.565,0,0,1-.518-.583l.168-4.91a.57.57,0,0,1,.178-.4.584.584,0,0,1,.407-.152l11.22.4a.569.569,0,0,1,.544.593l0,.027a30.633,30.633,0,0,1-1.491,7.026.564.564,0,0,1-.3.334Zm-9.568-3.418A34.564,34.564,0,0,1,44.472,41.8a29.528,29.528,0,0,0,1.189-5.6l-10.047-.359Z" transform="translate(-5.747 -5.805)" fill="#322222"/>
          <path id="Trazado_766293" data-name="Trazado 766293" d="M44.75,17.665l-.05.022a31.476,31.476,0,0,1-9.079,1.54.566.566,0,0,1-.577-.555c0-.011,0-.021,0-.032l.393-11.281a.565.565,0,0,1,.586-.545l.035,0a19.442,19.442,0,0,1,3.214.614.563.563,0,0,1,.294.175,31.088,31.088,0,0,1,5.484,9.339.56.56,0,0,1-.018.445.567.567,0,0,1-.285.274m-8.554.41a30.233,30.233,0,0,0,7.581-1.287,29.924,29.924,0,0,0-4.944-8.3,18.416,18.416,0,0,0-2.284-.467Z" transform="translate(-5.866 -1.14)" fill="#322222"/>
          <path id="Trazado_766294" data-name="Trazado 766294" d="M37.665,56.732a.589.589,0,0,1-.111.035,19.055,19.055,0,0,1-3.265.394.566.566,0,0,1-.585-.545v-.042L34.1,45.3a.561.561,0,0,1,.614-.541,31.459,31.459,0,0,1,8.929,2.174.564.564,0,0,1,.314.734.289.289,0,0,1-.012.028,31.322,31.322,0,0,1-6.113,8.926.555.555,0,0,1-.171.115M34.856,56a18.155,18.155,0,0,0,2.3-.307,30.2,30.2,0,0,0,5.5-7.933,30.326,30.326,0,0,0-7.454-1.816Z" transform="translate(-5.641 -7.49)" fill="#322222"/>
          <path id="Trazado_766295" data-name="Trazado 766295" d="M29.894,19.035a.566.566,0,0,1-.275.046,30.834,30.834,0,0,1-9-2.2.564.564,0,0,1-.311-.734l.012-.026a31.614,31.614,0,0,1,6.1-8.906.581.581,0,0,1,.285-.151,21.045,21.045,0,0,1,3.332-.4.567.567,0,0,1,.588.586l-.4,11.285a.556.556,0,0,1-.337.5m-8.289-2.982a29.7,29.7,0,0,0,7.519,1.838l.35-10.062a20.235,20.235,0,0,0-2.378.309,30.529,30.529,0,0,0-5.5,7.914" transform="translate(-3.393 -1.115)" fill="#322222"/>
          <path id="Trazado_766296" data-name="Trazado 766296" d="M29.047,29.96a.568.568,0,0,1-.246.047l-11.286-.394a.568.568,0,0,1-.547-.587l0-.029a31.127,31.127,0,0,1,1.487-7.1.569.569,0,0,1,.748-.349A33.4,33.4,0,0,0,29.034,23.9a.564.564,0,0,1,.519.583l-.17,4.977a.566.566,0,0,1-.18.395.557.557,0,0,1-.16.106M18.153,28.5l10.116.354.132-3.871a34.472,34.472,0,0,1-9.063-2.158A30.15,30.15,0,0,0,18.153,28.5" transform="translate(-2.84 -3.599)" fill="#322222"/>
          <path id="Trazado_766297" data-name="Trazado 766297" d="M28.718,40.444a.58.58,0,0,1-.218.047,33.831,33.831,0,0,0-9.986,1.657.569.569,0,0,1-.712-.375l-.007-.025a30.837,30.837,0,0,1-.966-7.128.566.566,0,0,1,.558-.575h.028l11.27.41a.565.565,0,0,1,.545.585h0l-.173,4.9a.563.563,0,0,1-.34.5m-9.976.445a34.964,34.964,0,0,1,9.2-1.516l.132-3.8-10.1-.366a29.75,29.75,0,0,0,.769,5.686" transform="translate(-2.817 -5.698)" fill="#322222"/>
          <path id="Trazado_766298" data-name="Trazado 766298" d="M28.6,56.97a.563.563,0,0,1-.286.043,20.392,20.392,0,0,1-3.307-.641.55.55,0,0,1-.271-.17,30.884,30.884,0,0,1-5.464-9.319.569.569,0,0,1,.019-.445.586.586,0,0,1,.333-.293,30.98,30.98,0,0,1,9.136-1.54.565.565,0,0,1,.576.555v.032l-.395,11.279a.562.562,0,0,1-.195.408.61.61,0,0,1-.143.09m-3.126-1.644a19.432,19.432,0,0,0,2.357.485l.351-10.057A29.865,29.865,0,0,0,20.55,47.04a29.775,29.775,0,0,0,4.927,8.285" transform="translate(-3.22 -7.466)" fill="#322222"/>
          <path id="Trazado_766299" data-name="Trazado 766299" d="M16.851,15.951a.447.447,0,0,1-.046.02.561.561,0,0,1-.446-.037c-.709-.376-1.4-.781-2.052-1.2a.565.565,0,0,1-.174-.778.62.62,0,0,1,.075-.094A21.881,21.881,0,0,1,19.05,10.12a.558.558,0,0,1,.7.1.566.566,0,0,1,.057.7,35.663,35.663,0,0,0-2.662,4.748.568.568,0,0,1-.287.281m-1.333-1.8c.279.168.562.335.851.5q.537-1.109,1.15-2.184a20.58,20.58,0,0,0-2,1.688" transform="translate(-2.351 -1.681)" fill="#322222"/>
          <path id="Trazado_766300" data-name="Trazado 766300" d="M18.049,54.024a.566.566,0,0,1-.54-.048A21.54,21.54,0,0,1,12.946,49.9a.567.567,0,0,1,.071-.8.541.541,0,0,1,.093-.063c.684-.371,1.377-.714,2.117-1.054a.539.539,0,0,1,.45-.008.56.56,0,0,1,.313.322,35.291,35.291,0,0,0,2.325,4.924.567.567,0,0,1-.106.694.557.557,0,0,1-.16.106M14.277,49.7a20.19,20.19,0,0,0,1.872,1.827q-.531-1.107-.992-2.261c-.3.143-.592.287-.88.435" transform="translate(-2.145 -8.023)" fill="#322222"/>
          <path id="Trazado_766301" data-name="Trazado 766301" d="M12.586,28.8a.555.555,0,0,1-.246.047L7.4,28.672a.572.572,0,0,1-.409-.2.565.565,0,0,1-.133-.431A21.814,21.814,0,0,1,10.708,17.9a.565.565,0,0,1,.774-.147c.826.544,1.8,1.117,2.9,1.7a.565.565,0,0,1,.268.685,33.214,33.214,0,0,0-1.731,8.186.565.565,0,0,1-.339.474m-4.526-1.24,3.783.137a34.246,34.246,0,0,1,1.586-7.47c-.766-.417-1.47-.828-2.1-1.228a20.733,20.733,0,0,0-3.266,8.562" transform="translate(-1.147 -2.956)" fill="#322222"/>
          <path id="Trazado_766302" data-name="Trazado 766302" d="M10.553,44.829a.565.565,0,0,1-.709-.226A21.845,21.845,0,0,1,6.711,34.278a.564.564,0,0,1,.536-.591H7.3l4.94.177a.566.566,0,0,1,.546.56,32.961,32.961,0,0,0,1.138,8.226.568.568,0,0,1-.321.667c-1,.435-1.982.921-3,1.485l-.051.022M7.877,34.838a20.739,20.739,0,0,0,2.659,8.707c.728-.392,1.442-.747,2.166-1.073a34.071,34.071,0,0,1-1.043-7.5Z" transform="translate(-1.123 -5.638)" fill="#322222"/>
          <path id="Trazado_766303" data-name="Trazado 766303" d="M57.9,30.39a.58.58,0,0,1-.246.047l-5.006-.183a.565.565,0,0,1-.545-.559,33.589,33.589,0,0,0-1.151-8.28.564.564,0,0,1,.32-.666c1.007-.438,2-.933,3.05-1.515a.59.59,0,0,1,.759.2,21.9,21.9,0,0,1,3.161,10.407.567.567,0,0,1-.341.545M53.226,29.14l3.85.141a20.789,20.789,0,0,0-2.685-8.789c-.754.405-1.487.769-2.22,1.1a34.707,34.707,0,0,1,1.057,7.55" transform="translate(-8.525 -3.209)" fill="#322222"/>
          <path id="Trazado_766304" data-name="Trazado 766304" d="M53.852,46.411a.567.567,0,0,1-.539-.047,32.9,32.9,0,0,0-2.932-1.73.567.567,0,0,1-.273-.689,33.439,33.439,0,0,0,1.732-8.124.566.566,0,0,1,.584-.516l5,.178a.567.567,0,0,1,.545.588.378.378,0,0,1,0,.043,22.033,22.033,0,0,1-3.872,10.1.566.566,0,0,1-.236.194m-2.519-2.553c.734.4,1.452.821,2.139,1.257a20.917,20.917,0,0,0,3.283-8.523l-3.841-.137a34.641,34.641,0,0,1-1.579,7.406" transform="translate(-8.382 -5.909)" fill="#322222"/>
          <path id="Trazado_766305" data-name="Trazado 766305" d="M38.6,52.833a27.562,27.562,0,1,1,7.8-5.134,27.564,27.564,0,0,1-7.8,5.134M17.147,3.425A26.383,26.383,0,1,0,28.56,1.275a26.381,26.381,0,0,0-11.414,2.15" transform="translate(0 0)" fill="#322222"/>
          <path id="Trazado_766306" data-name="Trazado 766306" d="M38.235,51.465a25.226,25.226,0,0,1-4.561,1.49,2.564,2.564,0,0,1-.274.064,24.946,24.946,0,0,1-6.206.553,1.945,1.945,0,0,1-.26-.025,25.044,25.044,0,0,1-6.03-.988l-.021-.007a1.218,1.218,0,0,1-.322-.1l-.033-.017a25.622,25.622,0,0,1-13.054-9.3q-.289-.38-.55-.778A25.252,25.252,0,0,1,2.518,27.54c0-.129,0-.273.007-.423,0-.123.007-.256.017-.376A25.252,25.252,0,0,1,8.168,11.993c.049-.066.117-.147.192-.23l.078-.089A25.645,25.645,0,0,1,22.315,3.117a2.335,2.335,0,0,1,.393-.081,24.743,24.743,0,0,1,6.086-.559,1.19,1.19,0,0,1,.181,0,1.78,1.78,0,0,1,.23.018,24.922,24.922,0,0,1,5.989.975,25.741,25.741,0,0,1,13.788,9.867,25.323,25.323,0,0,1,4.635,15.594l0,.031a25.331,25.331,0,0,1-5.877,15.367,25.645,25.645,0,0,1-9.5,7.137m-17.168-.014a.571.571,0,0,1,.15.026,23.975,23.975,0,0,0,5.809.946.58.58,0,0,1,.147.018,24.249,24.249,0,0,0,6.025-.532l.265.52-.147-.548.117-.028a24.478,24.478,0,0,0,13.443-8.245,24.216,24.216,0,0,0,5.619-14.682V28.9a24.219,24.219,0,0,0-4.43-14.911A24.591,24.591,0,0,0,34.885,4.56a24.114,24.114,0,0,0-5.78-.935l-.143-.578-.021.565c-.022,0-.155,0-.176,0a23.977,23.977,0,0,0-5.876.543,1.708,1.708,0,0,0-.223.045A24.651,24.651,0,0,0,9.3,12.406l-.09.106c-.055.061-.107.12-.152.181a24.173,24.173,0,0,0-5.38,14.13c-.011.128-.015.231-.017.333-.006.136-.01.256-.007.383A24.147,24.147,0,0,0,7.868,41.731c.167.255.333.49.514.73a24.509,24.509,0,0,0,12.507,8.9.587.587,0,0,1,.174.087l.012,0" transform="translate(-0.42 -0.412)" fill="#322222"/>
          <path id="Trazado_766307" data-name="Trazado 766307" d="M49.961,17.092a.566.566,0,0,1-.745-.295.239.239,0,0,1-.011-.026,34.379,34.379,0,0,0-2.369-5.011.566.566,0,0,1,.805-.754,22.566,22.566,0,0,1,4.652,4.126.564.564,0,0,1-.062.8.486.486,0,0,1-.1.067c-.8.439-1.488.784-2.166,1.092Zm-.947-3.637q.561,1.16,1.032,2.347c.3-.142.6-.295.922-.465a21.5,21.5,0,0,0-1.954-1.883" transform="translate(-7.827 -1.826)" fill="#322222"/>
          <path id="Trazado_766308" data-name="Trazado 766308" d="M45.994,55.108a.565.565,0,0,1-.7-.835,34.991,34.991,0,0,0,2.714-4.823.565.565,0,0,1,.751-.276l.025.012c.655.343,1.318.733,2.092,1.223a.567.567,0,0,1,.172.783.576.576,0,0,1-.072.09,22.022,22.022,0,0,1-4.936,3.8.43.43,0,0,1-.053.023m2.789-4.639q-.56,1.159-1.2,2.271a21.257,21.257,0,0,0,2.086-1.751c-.31-.189-.6-.361-.888-.522" transform="translate(-7.566 -8.222)" fill="#322222"/>
          <path id="Trazado_766309" data-name="Trazado 766309" d="M46.7,30.65a.567.567,0,0,1-.246.046l-11.221-.4a.566.566,0,0,1-.545-.584h0l.17-4.977a.568.568,0,0,1,.556-.548,33.693,33.693,0,0,0,9.932-1.649.566.566,0,0,1,.714.364l.01.034a31.279,31.279,0,0,1,.971,7.185.566.566,0,0,1-.341.53M35.836,29.194l10.051.353a30.192,30.192,0,0,0-.775-5.747,34.808,34.808,0,0,1-9.143,1.516Z" transform="translate(-5.805 -3.768)" fill="#322222"/>
          <path id="Trazado_766310" data-name="Trazado 766310" d="M45.05,43.065a.565.565,0,0,1-.439,0,33.436,33.436,0,0,0-9.76-2.349.565.565,0,0,1-.518-.583l.168-4.91a.57.57,0,0,1,.178-.4.584.584,0,0,1,.407-.152l11.22.4a.569.569,0,0,1,.544.593l0,.027a30.633,30.633,0,0,1-1.491,7.026.564.564,0,0,1-.3.334Zm-9.568-3.418A34.564,34.564,0,0,1,44.472,41.8a29.528,29.528,0,0,0,1.189-5.6l-10.047-.359Z" transform="translate(-5.747 -5.805)" fill="#322222"/>
          <path id="Trazado_766311" data-name="Trazado 766311" d="M44.75,17.665l-.05.022a31.476,31.476,0,0,1-9.079,1.54.566.566,0,0,1-.577-.555c0-.011,0-.021,0-.032l.393-11.281a.565.565,0,0,1,.586-.545l.035,0a19.442,19.442,0,0,1,3.214.614.563.563,0,0,1,.294.175,31.088,31.088,0,0,1,5.484,9.339.56.56,0,0,1-.018.445.567.567,0,0,1-.285.274m-8.554.41a30.233,30.233,0,0,0,7.581-1.287,29.924,29.924,0,0,0-4.944-8.3,18.416,18.416,0,0,0-2.284-.467Z" transform="translate(-5.866 -1.14)" fill="#322222"/>
          <path id="Trazado_766312" data-name="Trazado 766312" d="M37.665,56.732a.589.589,0,0,1-.111.035,19.055,19.055,0,0,1-3.265.394.566.566,0,0,1-.585-.545v-.042L34.1,45.3a.561.561,0,0,1,.614-.541,31.459,31.459,0,0,1,8.929,2.174.564.564,0,0,1,.314.734.289.289,0,0,1-.012.028,31.322,31.322,0,0,1-6.113,8.926.555.555,0,0,1-.171.115M34.856,56a18.155,18.155,0,0,0,2.3-.307,30.2,30.2,0,0,0,5.5-7.933,30.326,30.326,0,0,0-7.454-1.816Z" transform="translate(-5.641 -7.49)" fill="#322222"/>
          <path id="Trazado_766313" data-name="Trazado 766313" d="M29.894,19.035a.566.566,0,0,1-.275.046,30.834,30.834,0,0,1-9-2.2.564.564,0,0,1-.311-.734l.012-.026a31.614,31.614,0,0,1,6.1-8.906.581.581,0,0,1,.285-.151,21.045,21.045,0,0,1,3.332-.4.567.567,0,0,1,.588.586l-.4,11.285a.556.556,0,0,1-.337.5m-8.289-2.982a29.7,29.7,0,0,0,7.519,1.838l.35-10.062a20.235,20.235,0,0,0-2.378.309,30.529,30.529,0,0,0-5.5,7.914" transform="translate(-3.393 -1.115)" fill="#322222"/>
          <path id="Trazado_766314" data-name="Trazado 766314" d="M29.047,29.96a.568.568,0,0,1-.246.047l-11.286-.394a.568.568,0,0,1-.547-.587l0-.029a31.127,31.127,0,0,1,1.487-7.1.569.569,0,0,1,.748-.349A33.4,33.4,0,0,0,29.034,23.9a.564.564,0,0,1,.519.583l-.17,4.977a.566.566,0,0,1-.18.395.557.557,0,0,1-.16.106M18.153,28.5l10.116.354.132-3.871a34.472,34.472,0,0,1-9.063-2.158A30.15,30.15,0,0,0,18.153,28.5" transform="translate(-2.84 -3.599)" fill="#322222"/>
          <path id="Trazado_766315" data-name="Trazado 766315" d="M28.718,40.444a.58.58,0,0,1-.218.047,33.831,33.831,0,0,0-9.986,1.657.569.569,0,0,1-.712-.375l-.007-.025a30.837,30.837,0,0,1-.966-7.128.566.566,0,0,1,.558-.575h.028l11.27.41a.565.565,0,0,1,.545.585h0l-.173,4.9a.563.563,0,0,1-.34.5m-9.976.445a34.964,34.964,0,0,1,9.2-1.516l.132-3.8-10.1-.366a29.75,29.75,0,0,0,.769,5.686" transform="translate(-2.817 -5.698)" fill="#322222"/>
          <path id="Trazado_766316" data-name="Trazado 766316" d="M28.6,56.97a.563.563,0,0,1-.286.043,20.392,20.392,0,0,1-3.307-.641.55.55,0,0,1-.271-.17,30.884,30.884,0,0,1-5.464-9.319.569.569,0,0,1,.019-.445.586.586,0,0,1,.333-.293,30.98,30.98,0,0,1,9.136-1.54.565.565,0,0,1,.576.555v.032l-.395,11.279a.562.562,0,0,1-.195.408.61.61,0,0,1-.143.09m-3.126-1.644a19.432,19.432,0,0,0,2.357.485l.351-10.057A29.865,29.865,0,0,0,20.55,47.04a29.775,29.775,0,0,0,4.927,8.285" transform="translate(-3.22 -7.466)" fill="#322222"/>
          <path id="Trazado_766317" data-name="Trazado 766317" d="M16.851,15.951a.447.447,0,0,1-.046.02.561.561,0,0,1-.446-.037c-.709-.376-1.4-.781-2.052-1.2a.565.565,0,0,1-.174-.778.62.62,0,0,1,.075-.094A21.881,21.881,0,0,1,19.05,10.12a.558.558,0,0,1,.7.1.566.566,0,0,1,.057.7,35.663,35.663,0,0,0-2.662,4.748.568.568,0,0,1-.287.281m-1.333-1.8c.279.168.562.335.851.5q.537-1.109,1.15-2.184a20.58,20.58,0,0,0-2,1.688" transform="translate(-2.351 -1.681)" fill="#322222"/>
          <path id="Trazado_766318" data-name="Trazado 766318" d="M18.049,54.024a.566.566,0,0,1-.54-.048A21.54,21.54,0,0,1,12.946,49.9a.567.567,0,0,1,.071-.8.541.541,0,0,1,.093-.063c.684-.371,1.377-.714,2.117-1.054a.539.539,0,0,1,.45-.008.56.56,0,0,1,.313.322,35.291,35.291,0,0,0,2.325,4.924.567.567,0,0,1-.106.694.557.557,0,0,1-.16.106M14.277,49.7a20.19,20.19,0,0,0,1.872,1.827q-.531-1.107-.992-2.261c-.3.143-.592.287-.88.435" transform="translate(-2.145 -8.023)" fill="#322222"/>
          <path id="Trazado_766319" data-name="Trazado 766319" d="M12.586,28.8a.555.555,0,0,1-.246.047L7.4,28.672a.572.572,0,0,1-.409-.2.565.565,0,0,1-.133-.431A21.814,21.814,0,0,1,10.708,17.9a.565.565,0,0,1,.774-.147c.826.544,1.8,1.117,2.9,1.7a.565.565,0,0,1,.268.685,33.214,33.214,0,0,0-1.731,8.186.565.565,0,0,1-.339.474m-4.526-1.24,3.783.137a34.246,34.246,0,0,1,1.586-7.47c-.766-.417-1.47-.828-2.1-1.228a20.733,20.733,0,0,0-3.266,8.562" transform="translate(-1.147 -2.956)" fill="#322222"/>
          <path id="Trazado_766320" data-name="Trazado 766320" d="M10.553,44.829a.565.565,0,0,1-.709-.226A21.845,21.845,0,0,1,6.711,34.278a.564.564,0,0,1,.536-.591H7.3l4.94.177a.566.566,0,0,1,.546.56,32.961,32.961,0,0,0,1.138,8.226.568.568,0,0,1-.321.667c-1,.435-1.982.921-3,1.485l-.051.022M7.877,34.838a20.739,20.739,0,0,0,2.659,8.707c.728-.392,1.442-.747,2.166-1.073a34.071,34.071,0,0,1-1.043-7.5Z" transform="translate(-1.123 -5.638)" fill="#322222"/>
          <path id="Trazado_766321" data-name="Trazado 766321" d="M35.152,4.129a24.576,24.576,0,0,0-5.917-.958,1.3,1.3,0,0,0-.17-.017,1.248,1.248,0,0,0-.177,0,24.361,24.361,0,0,0-6.013.556,2.187,2.187,0,0,0-.318.069A25.014,25.014,0,0,0,8.982,12.156c-.092.107-.184.206-.26.306a24.816,24.816,0,0,0-5.5,14.45c-.012.11-.016.226-.019.345,0,.135-.007.269,0,.408a24.768,24.768,0,0,0,4.312,14.5c.167.256.342.5.531.753a24.932,24.932,0,0,0,12.792,9.1c.022.015.058.023.087.039a.694.694,0,0,0,.206.057.08.08,0,0,0,.051.016,24.317,24.317,0,0,0,5.947.968.7.7,0,0,0,.176.021h.029a24.382,24.382,0,0,0,6.1-.546c.076-.012.156-.038.237-.057a25.031,25.031,0,0,0,19.5-23.462v-.029l0,0a25.039,25.039,0,0,0-18.015-24.9M17.513,9.451a35.941,35.941,0,0,0-2.7,4.823c-.72-.384-1.4-.782-2.014-1.176a21.4,21.4,0,0,1,4.718-3.647M10.559,15.8c.883.58,1.875,1.157,2.948,1.73a33.736,33.736,0,0,0-1.761,8.325l-4.938-.177A21.2,21.2,0,0,1,10.559,15.8M9.741,39.2A21.155,21.155,0,0,1,6.689,29.143l4.938.178a33.457,33.457,0,0,0,1.158,8.367v0c-1.11.483-2.126,1-3.046,1.507M11.77,42.04c.65-.352,1.337-.7,2.082-1.036a36.044,36.044,0,0,0,2.359,5A20.993,20.993,0,0,1,11.77,42.04m13.919,7.467h0a19.816,19.816,0,0,1-3.214-.624,30.419,30.419,0,0,1-5.358-9.143,30.4,30.4,0,0,1,8.967-1.512Zm.524-14.756a34.316,34.316,0,0,0-10.154,1.683,30.191,30.191,0,0,1-.948-6.995l11.27.409Zm.3-8.384-11.29-.394A30.5,30.5,0,0,1,16.682,19a33.948,33.948,0,0,0,10,2.387Zm.3-8.441v0a30.2,30.2,0,0,1-8.833-2.16A30.836,30.836,0,0,1,23.965,7.03a20.492,20.492,0,0,1,3.242-.387ZM44.568,14.2c-.659.36-1.361.724-2.128,1.072a34.763,34.763,0,0,0-2.406-5.092,21.973,21.973,0,0,1,4.534,4.02M30.673,6.77a18.632,18.632,0,0,1,3.132.6l.006,0a30.614,30.614,0,0,1,5.38,9.166v0a30.723,30.723,0,0,1-8.915,1.512ZM30.15,21.519a34.179,34.179,0,0,0,10.095-1.685,30.661,30.661,0,0,1,.954,7.055L29.98,26.5Zm-.3,8.45,11.218.4a30.031,30.031,0,0,1-1.46,6.895,33.938,33.938,0,0,0-9.926-2.389ZM32.33,49.248l0,0a18.7,18.7,0,0,1-3.169.38l.395-11.279a30.881,30.881,0,0,1,8.767,2.136,30.8,30.8,0,0,1-5.995,8.76M38.737,46.9a35.383,35.383,0,0,0,2.758-4.9c.734.381,1.419.793,2.048,1.2l0,0a21.58,21.58,0,0,1-4.808,3.7M49.548,30.669a21.377,21.377,0,0,1-3.772,9.842,33.24,33.24,0,0,0-2.985-1.761,33.963,33.963,0,0,0,1.763-8.262l5,.179Zm-4.867-3.661a34.056,34.056,0,0,0-1.17-8.416c1.139-.5,2.162-1.019,3.1-1.537A21.24,21.24,0,0,1,49.687,27.19Z" transform="translate(-0.534 -0.526)" fill="#fde9de"/>
        </g>
      </g>
      <g transform="matrix(1, 0, 0, 1, 705, 756.43)" filter="url(#Trazado_766322)">
        <path id="Trazado_766322-2" data-name="Trazado 766322" d="M687.549,562.2a8.731,8.731,0,0,0-8.731,8.731c0,8,8.731,15.094,8.731,15.094s8.731-7.091,8.731-15.094a8.731,8.731,0,0,0-8.731-8.731m0,14.241a5.51,5.51,0,1,1,5.51-5.51,5.51,5.51,0,0,1-5.51,5.51" transform="translate(-651.25 -552.65)" fill="#ff964c" stroke="#33490b" stroke-width="1"/>
      </g>
    </g>
  </g>
</svg>
